<?xml version="1.0" encoding="utf-8"?>
<!-- Generator: Adobe Illustrator 22.1.0, SVG Export Plug-In . SVG Version: 6.00 Build 0)  -->
<svg version="1.1" id="Layer_1" xmlns="http://www.w3.org/2000/svg" xmlns:xlink="http://www.w3.org/1999/xlink" x="0px" y="0px"
	 viewBox="0 0 773.9 368.5" style="enable-background:new 0 0 773.9 368.5;" xml:space="preserve">
<style type="text/css">
	.st0{fill:#1B2443;}
	.st1{fill:#FFFFFF;}
</style>
<path class="st0" d="M359.8,100.1v151.2h-13.2l-97.2-122.7v122.7h-16V100.1h13.2L344,222.8V100.1H359.8z"/>
<path class="st0" d="M486.3,137.7l-50.5,113.6H420l-50.3-113.6h16l42.5,96.7l43-96.7H486.3z"/>
<path class="st0" d="M589.1,199h-93.3c1.7,23.3,19.5,38.8,43.9,38.8c13.6,0,25.7-4.9,34.1-14.6l8.5,9.8c-10,11.9-25.4,18.2-43,18.2
	c-34.8,0-58.5-23.7-58.5-56.8s23.1-56.6,54.5-56.6c31.4,0,54.1,23.1,54.1,56.6C589.3,195.6,589.1,197.3,589.1,199z M495.8,187.7
	h79.1c-1.9-21.8-17.8-37.1-39.7-37.1C513.6,150.6,497.7,165.9,495.8,187.7z"/>
<path class="st0" d="M592.3,237.4l6.8-11.9c8.9,7,24,12.5,39.7,12.5c21.2,0,29.9-7.2,29.9-18.2c0-29-72.3-6.1-72.3-50.3
	c0-18.2,15.7-31.8,44.1-31.8c14.4,0,30.1,4,39.4,10.4l-6.6,12.1c-9.8-6.8-21.4-9.5-32.9-9.5c-20.1,0-29,7.8-29,18.4
	c0,30.1,72.3,7.4,72.3,50.3c0,19.3-17,31.8-46,31.8C619.2,251.2,601.4,245.3,592.3,237.4z"/>
<path class="st0" d="M750.4,243.2c-6,5.3-15,7.9-23.7,7.9c-21.2,0-32.9-12-32.9-32.7V113h15.2v24.6h34.2v12.8h-34.2v67.1
	c0,13.3,6.8,20.5,19.5,20.5c6.2,0,12.4-1.9,16.7-5.8L750.4,243.2z"/>
<rect x="26" y="79.3" class="st0" width="189.2" height="190.4"/>
<g>
	<polygon class="st1" points="196.8,99.7 146,99.7 146,142.5 146,160.1 196.8,160.1 	"/>
	<path class="st1" d="M196.8,174.5V167H146v1.1L87.2,99.7H44.3v23l32,37.5h-32v6.9h37.9l6.4,7.5H44.3v6.9h50.2l6.4,7.5H44.3v6.9
		h62.5l6.4,7.5H44.3v6.9H119l34.9,40.9h42.9v-23.9l0,0v-0.3v-0.8l0,0v-16h-14.1c-2-2.3-4.1-4.6-6.1-6.9h20.2v-7.5H170
		c-1.7-1.9-3.4-3.8-5-5.7l-1-1.1h32.9v-7.5h-39.3l-6-7H196.8z"/>
</g>
</svg>
